<svg width="48" height="48" viewBox="0 0 48 48" fill="none" xmlns="http://www.w3.org/2000/svg">
<rect width="48" height="48" rx="8" fill="#E2EBFA"/>
<path d="M33.0872 30.875C33.0872 31.969 32.6454 33.0182 31.8588 33.7918C31.0723 34.5654 30.0056 35 28.8932 35H12.1173C11.005 35 9.93825 34.5654 9.15173 33.7918C8.3652 33.0182 7.92334 31.969 7.92334 30.875V17.125C7.92334 16.031 8.3652 14.9818 9.15173 14.2082C9.93825 13.4346 11.005 13 12.1173 13H28.8932C30.0056 13 31.0723 13.4346 31.8588 14.2082C32.6454 14.9818 33.0872 16.031 33.0872 17.125V19.875L38.0543 17.4323C38.2675 17.3275 38.5044 17.2781 38.7424 17.2887C38.9805 17.2993 39.2119 17.3696 39.4146 17.4929C39.6173 17.6162 39.7845 17.7884 39.9005 17.9932C40.0165 18.198 40.0773 18.4285 40.0772 18.6629V29.3377C40.0772 29.5721 40.0163 29.8026 39.9003 30.0072C39.7842 30.2119 39.617 30.384 39.4143 30.5073C39.2116 30.6305 38.9803 30.7007 38.7423 30.7113C38.5042 30.7219 38.2674 30.6724 38.0543 30.5677L33.0872 28.125V30.875Z" fill="url(#paint0_linear_7140_64168)"/>
<path d="M18.5043 19.1296L24.1381 22.6863C24.815 23.1134 25.047 24.0606 24.6571 24.8019C24.5309 25.0412 24.349 25.2399 24.129 25.3763L18.4952 28.8749C17.8161 29.297 16.9538 29.0352 16.5688 28.2911C16.4476 28.0556 16.3844 27.7931 16.3848 27.5267V20.472C16.3848 19.6162 17.018 18.9229 17.7985 18.9229C18.0467 18.9229 18.29 18.9939 18.5043 19.1296Z" fill="white"/>
<foreignObject x="15.9985" y="27.9961" width="24.0039" height="18.0078"><div xmlns="http://www.w3.org/1999/xhtml" style="backdrop-filter:blur(2px);clip-path:url(#bgblur_0_7140_64168_clip_path);height:100%;width:100%"></div></foreignObject><rect data-figma-bg-blur-radius="4" x="19.9976" y="32.0049" width="16" height="10" rx="2" transform="rotate(-0.0341762 19.9976 32.0049)" fill="#94B2F7" fill-opacity="0.52"/>
<circle cx="23.23" cy="35.2339" r="1.23077" transform="rotate(-0.0341762 23.23 35.2339)" fill="white" fill-opacity="0.6"/>
<defs>
<clipPath id="bgblur_0_7140_64168_clip_path" transform="translate(-15.9985 -27.9961)"><rect x="19.9976" y="32.0049" width="16" height="10" rx="2" transform="rotate(-0.0341762 19.9976 32.0049)"/>
</clipPath><linearGradient id="paint0_linear_7140_64168" x1="24.0003" y1="13" x2="24.0003" y2="35" gradientUnits="userSpaceOnUse">
<stop stop-color="#5D8AFD"/>
<stop offset="1" stop-color="#2459F7"/>
</linearGradient>
</defs>
</svg>
